<svg width="50" height="50" viewBox="0 0 50 50" fill="none" xmlns="http://www.w3.org/2000/svg">
<path d="M5.1125 16.5406C5.69852 15.9548 6.49324 15.6257 7.32187 15.6257C8.15051 15.6257 8.94523 15.9548 9.53125 16.5406L25 32.0094L40.4688 16.5406C41.0581 15.9714 41.8475 15.6564 42.6669 15.6635C43.4862 15.6706 44.27 15.9993 44.8494 16.5787C45.4288 17.1581 45.7575 17.9419 45.7646 18.7612C45.7717 19.5806 45.4567 20.37 44.8875 20.9594L27.2094 38.6375C26.6234 39.2234 25.8286 39.5525 25 39.5525C24.1714 39.5525 23.3767 39.2234 22.7906 38.6375L5.1125 20.9594C4.52665 20.3734 4.19754 19.5786 4.19754 18.75C4.19754 17.9214 4.52665 17.1267 5.1125 16.5406Z" fill="#D3B357"/>
</svg>
