<svg width="26" height="18" viewBox="0 0 26 18" fill="none" xmlns="http://www.w3.org/2000/svg">
<g clip-path="url(#clip0_107_18)">
<path d="M7.51833 4.02906C7.51804 4.50085 7.2895 4.95323 6.88296 5.28667C6.47643 5.62011 5.92522 5.80731 5.35058 5.80707C4.77595 5.80684 4.22496 5.61919 3.81883 5.28541C3.41271 4.95164 3.18471 4.49907 3.185 4.02728C3.18529 3.55549 3.41383 3.10311 3.82037 2.76967C4.2269 2.43622 4.77811 2.24903 5.35275 2.24927C5.92738 2.2495 6.47837 2.43715 6.8845 2.77092C7.29062 3.1047 7.51862 3.55726 7.51833 4.02906ZM7.58333 7.12435H3.25V18.2603H7.58333V7.12435ZM14.43 7.12435H10.1183V18.2603H14.3867V12.4166C14.3867 9.16119 19.5542 8.85878 19.5542 12.4166V18.2603H23.8333V11.2069C23.8333 5.71901 16.185 5.92359 14.3867 8.61862L14.43 7.12435Z" fill="#D3B357"/>
</g>
<defs>
<clipPath id="clip0_107_18">
<rect width="26" height="18" fill="white"/>
</clipPath>
</defs>
</svg>
