<svg width="50" height="50" viewBox="0 0 50 50" fill="none" xmlns="http://www.w3.org/2000/svg">
<path d="M45.8333 37.5104C45.8333 38.6562 44.9042 39.5833 43.7604 39.5833H27.0729C26.5231 39.5833 25.9959 39.3649 25.6071 38.9762C25.2184 38.5874 25 38.0602 25 37.5104C25 36.9606 25.2184 36.4334 25.6071 36.0446C25.9959 35.6559 26.5231 35.4375 27.0729 35.4375H43.7604C44.9062 35.4375 45.8333 36.3646 45.8333 37.5104V37.5104ZM45.8333 25C45.8333 26.1458 44.9042 27.0729 43.7604 27.0729H6.23957C5.6898 27.0729 5.16255 26.8545 4.7738 26.4658C4.38505 26.077 4.16666 25.5498 4.16666 25C4.16666 24.4502 4.38505 23.923 4.7738 23.5342C5.16255 23.1455 5.6898 22.9271 6.23957 22.9271H43.7604C44.9062 22.9271 45.8333 23.8562 45.8333 25V25ZM43.7604 14.5625C44.3102 14.5625 44.8374 14.3441 45.2262 13.9554C45.6149 13.5666 45.8333 13.0394 45.8333 12.4896C45.8333 11.9398 45.6149 11.4126 45.2262 11.0238C44.8374 10.6351 44.3102 10.4167 43.7604 10.4167H18.7396C18.4674 10.4167 18.1978 10.4703 17.9463 10.5745C17.6948 10.6786 17.4663 10.8313 17.2738 11.0238C17.0813 11.2163 16.9286 11.4448 16.8244 11.6963C16.7203 11.9478 16.6667 12.2174 16.6667 12.4896C16.6667 12.7618 16.7203 13.0314 16.8244 13.2829C16.9286 13.5343 17.0813 13.7629 17.2738 13.9554C17.4663 14.1478 17.6948 14.3005 17.9463 14.4047C18.1978 14.5089 18.4674 14.5625 18.7396 14.5625H43.7604Z" fill="black"/>
</svg>
