<svg width="25" height="20" viewBox="0 0 25 20" fill="none" xmlns="http://www.w3.org/2000/svg">
<g clip-path="url(#clip0_115_6)">
<path d="M21.5805 -0.0196997C20.9167 -0.0295197 19.3746 0.19584 16.8 1.91902C15.3968 1.56832 13.9038 1.39526 12.4082 1.39526C10.7626 1.39526 9.09968 1.60422 7.54888 2.02964C3.85242 -0.4921 2.22084 0.0246803 2.22084 0.0246803C1.15568 2.68834 1.8139 4.66044 2.01396 5.15022C0.762022 6.50138 -0.0022583 8.22676 -0.0022583 10.3414C-0.0022583 11.9378 0.179442 13.3697 0.623362 14.6145C0.647982 14.7105 0.640002 14.6891 0.681482 14.7713C0.779282 15.029 0.888022 15.2791 1.01024 15.5207C1.05212 15.6076 1.09024 15.672 1.09024 15.672C2.33814 17.9981 4.79816 19.5007 9.17512 19.9725L15.795 19.98C20.4629 19.5171 22.7027 18.01 23.7349 15.6682L23.8005 15.5157C23.8983 15.2791 23.9836 15.033 24.2168 14.2045C24.45 13.3759 24.5543 11.941 24.5543 10.3408C24.5543 8.04566 23.6923 6.20922 22.2924 4.81208C22.5371 4.02248 22.8638 2.26892 21.9662 0.0240403C21.9662 0.0240403 21.8403 -0.0158597 21.5806 -0.0197197L21.5805 -0.0196997ZM16.3637 8.40266C17.4416 8.40032 18.3649 8.58538 19.0581 9.31264V9.31326C19.9255 10.2241 20.4331 11.3238 20.4331 12.5088C20.4331 18.042 16.8744 18.1925 12.4851 18.1925C8.09494 18.1925 4.53706 17.4258 4.53706 12.5088C4.53706 11.3316 5.03724 10.2385 5.89392 9.33138C7.32294 7.81958 9.74122 8.62014 12.4851 8.62014C13.8935 8.61992 15.2164 8.40514 16.3638 8.40264L16.3637 8.40266ZM8.1876 10.032C7.27428 10.032 6.53386 11.2668 6.53386 12.7907C6.53386 14.3149 7.27424 15.5501 8.1876 15.5501C9.10092 15.5501 9.84134 14.3149 9.84134 12.7907C9.84134 11.2671 9.10096 10.0331 8.1876 10.032ZM17.0606 10.032C16.1473 10.032 15.4068 11.2668 15.4068 12.7907C15.4068 14.3149 16.1472 15.5501 17.0606 15.5501C17.9739 15.5501 18.7143 14.3149 18.7143 12.7907C18.7143 11.2671 17.9739 10.0331 17.0606 10.032Z" fill="#333333"/>
</g>
<defs>
<clipPath id="clip0_115_6">
<rect width="24.56" height="20" fill="white"/>
</clipPath>
</defs>
</svg>
