<svg width="50" height="50" viewBox="0 0 50 50" fill="none" xmlns="http://www.w3.org/2000/svg">
<path d="M8.33334 12.5C8.33334 11.9475 8.55284 11.4176 8.94354 11.0269C9.33424 10.6362 9.86414 10.4167 10.4167 10.4167H39.5833C40.1359 10.4167 40.6658 10.6362 41.0565 11.0269C41.4472 11.4176 41.6667 11.9475 41.6667 12.5C41.6667 13.0525 41.4472 13.5824 41.0565 13.9731C40.6658 14.3638 40.1359 14.5833 39.5833 14.5833H10.4167C9.86414 14.5833 9.33424 14.3638 8.94354 13.9731C8.55284 13.5824 8.33334 13.0525 8.33334 12.5ZM8.33334 37.5C8.33334 36.9475 8.55284 36.4176 8.94354 36.0269C9.33424 35.6362 9.86414 35.4167 10.4167 35.4167H39.5833C40.1359 35.4167 40.6658 35.6362 41.0565 36.0269C41.4472 36.4176 41.6667 36.9475 41.6667 37.5C41.6667 38.0525 41.4472 38.5824 41.0565 38.9731C40.6658 39.3638 40.1359 39.5833 39.5833 39.5833H10.4167C9.86414 39.5833 9.33424 39.3638 8.94354 38.9731C8.55284 38.5824 8.33334 38.0525 8.33334 37.5ZM22.9167 22.9167C22.3641 22.9167 21.8342 23.1362 21.4435 23.5269C21.0528 23.9176 20.8333 24.4475 20.8333 25C20.8333 25.5525 21.0528 26.0824 21.4435 26.4731C21.8342 26.8638 22.3641 27.0833 22.9167 27.0833H39.5833C40.1359 27.0833 40.6658 26.8638 41.0565 26.4731C41.4472 26.0824 41.6667 25.5525 41.6667 25C41.6667 24.4475 41.4472 23.9176 41.0565 23.5269C40.6658 23.1362 40.1359 22.9167 39.5833 22.9167H22.9167Z" fill="black"/>
</svg>
